<?xml version="1.0" standalone="no"?>
<!DOCTYPE svg PUBLIC "-//W3C//DTD SVG 20010904//EN"
 "http://www.w3.org/TR/2001/REC-SVG-20010904/DTD/svg10.dtd">
<svg version="1.0" xmlns="http://www.w3.org/2000/svg"
 width="24.000000pt" height="24.000000pt" viewBox="0 0 24.000000 24.000000"
 preserveAspectRatio="xMidYMid meet">

<g transform="translate(0.000000,24.000000) scale(0.100000,-0.100000)"
fill="#000000" stroke="none">
<path d="M158 204 c-11 -12 -35 -17 -75 -18 l-58 -1 -1 -50 -2 -50 7 45 6 45
50 3 50 3 -22 -23 c-13 -13 -24 -35 -25 -48 -3 -21 1 -25 22 -22 13 1 35 12
48 25 l23 22 -3 -50 -3 -50 -68 -3 c-62 -3 -68 -1 -77 20 l-10 23 3 -25 c2
-24 4 -25 82 -25 l80 0 1 58 c1 41 7 63 20 78 33 36 -13 78 -48 43z m-2 -62
c-25 -25 -49 -43 -53 -39 -9 10 78 98 90 90 5 -3 -11 -26 -37 -51z"/>
</g>
</svg>
